<svg xmlns="http://www.w3.org/2000/svg" viewBox="0 0 1600 520" preserveAspectRatio="none" fill="none">
  <g stroke="#c98a3e" stroke-width="1.15" vector-effect="non-scaling-stroke">
    <path opacity=".12" d="M-80 72C170 28 360 108 610 68C850 30 1030 104 1270 62C1440 32 1550 42 1680 18"/>
    <path opacity=".18" d="M-80 126C180 76 370 160 620 116C860 74 1040 150 1280 104C1450 72 1560 84 1680 56"/>
    <path opacity=".11" d="M-80 180C195 124 385 214 640 164C880 118 1060 198 1300 148C1470 112 1580 128 1680 96"/>
    <path opacity=".21" d="M-80 236C210 176 400 270 660 216C900 166 1080 252 1320 196C1490 158 1600 174 1680 138"/>
    <path opacity=".13" d="M-80 292C225 228 420 326 680 268C920 214 1100 304 1340 246C1510 204 1620 224 1680 184"/>
    <path opacity=".23" d="M-80 350C240 282 440 382 700 322C940 264 1120 360 1360 298C1530 252 1640 276 1680 232"/>
    <path opacity=".14" d="M-80 408C255 336 460 440 720 376C960 316 1140 416 1380 350C1550 302 1660 328 1680 280"/>
    <path opacity=".20" d="M-80 468C270 392 480 500 740 432C980 368 1160 472 1400 402C1570 350 1680 380 1680 328"/>
  </g>
</svg>
